<svg xmlns="http://www.w3.org/2000/svg" viewBox="0 0 797.37 797.37"><defs><style>.cls-15,.cls-19,.cls-35,.cls-4{fill:none;stroke-miterlimit:10}.cls-4{stroke:#6ac6ba}.cls-35,.cls-4{stroke-width:5px}.cls-5{fill:#1c1d48}.cls-7{fill:#53988a}.cls-12{fill:#c17e7f}.cls-13{fill:#da8889}.cls-15{stroke:#29306a;stroke-width:20px}.cls-15,.cls-19,.cls-35{stroke-linecap:round}.cls-17{fill:#97b6ca}.cls-19{stroke:#b3cadd;stroke-width:15px}.cls-20{fill:#8e5d50}.cls-21{fill:#6f4e4f}.cls-22{fill:#a66350}.cls-23{fill:#4d3a40}.cls-24{fill:#fff}.cls-25{fill:#010101}.cls-26{fill:#211e2a}.cls-27{fill:#4a4650}.cls-28{fill:#e8ddd8}.cls-35{stroke:#75a6cf}</style><radialGradient id="Dégradé_sans_nom_20" cx="465.39" cy="202.6" r="34.8" gradientUnits="userSpaceOnUse"><stop offset=".45" stop-color="#e5d845" stop-opacity=".5"/><stop offset="1" stop-color="#e5d845" stop-opacity="0"/></radialGradient></defs><path fill="#2f6ab0" d="M-8.37-4.89h814v810h-814z" id="Calque_3" data-name="Calque 3"/><g id="Calque_1" data-name="Calque 1"><ellipse cx="418.78" cy="573.06" rx="311.98" ry="21" fill="#276299"/><ellipse cx="334.51" cy="578.75" rx="78.45" ry="15.3" fill="#215882"/><path class="cls-4" d="M149.22 515.19s8.75 7.34 7.91 23.43M164.75 498a64.94 64.94 0 0 1 2.54 37.26M181.12 513.78s-8.19 9-9 25.12"/><path class="cls-5" d="M134.91 529h62v8.22a31 31 0 0 1-31 31 31 31 0 0 1-31-31V529z"/><path d="M267.5 426.48c14.67 18.5-33.28 42.89-33.28 42.89s-27.53 45.44-54.41 47.36c0 0-6.74-40.09 15.83-68.06 21.62-26.81 57.14-40.75 71.86-22.19z" fill="#75beb5"/><path class="cls-7" d="M260.54 428a81.62 81.62 0 0 0-14 4.83 100.89 100.89 0 0 0-24.79 15.53 104.93 104.93 0 0 0-10.5 10.16 124.62 124.62 0 0 0-16.79 24 197.15 197.15 0 0 0-11.95 27.13 116 116 0 0 1 9.16-28.65 108.14 108.14 0 0 1 7.33-13.18 114.25 114.25 0 0 1 9.25-12 101.68 101.68 0 0 1 11.07-10.4A88 88 0 0 1 232 437a83.39 83.39 0 0 1 13.86-6 60.47 60.47 0 0 1 14.68-3z"/><path d="M50.27 462.77C46 478.46 77.29 495 106 493.27c0 0 8.71 25.27 45.31 25.27 0 0 7.74-44.66-26.63-62.61-29.84-15.6-70.17-8.84-74.41 6.84z" fill="#6ac6ba"/><path class="cls-7" d="M146.1 507.87a120.24 120.24 0 0 0-15-22.44 92.41 92.41 0 0 0-9.35-9.52 67.12 67.12 0 0 0-10.7-7.77 59.93 59.93 0 0 0-12-5.52 64.83 64.83 0 0 0-12.9-2.83 87 87 0 0 0-26.77 1.86 64.66 64.66 0 0 1 27-5l3.49.25a12.93 12.93 0 0 1 1.74.22l1.73.29 1.73.29c.58.1 1.14.27 1.71.4 1.14.29 2.29.53 3.41.88a61.18 61.18 0 0 1 12.84 5.69 66.69 66.69 0 0 1 11.19 8.41 77.75 77.75 0 0 1 9.25 10.38 80.33 80.33 0 0 1 12.63 24.41z"/><path d="M99.49 353.42s53.3-27.49 74.62 72.94c0 0 14 56.67-7.86 75.74 0 0-45.25-15.86-57.43-69.15-28.93-21.31-34.02-59.33-9.33-79.53z" fill="#86cec5"/><path d="M106.54 362.16a150 150 0 0 1 12.21 13.36c3.81 4.69 7.44 9.53 10.84 14.53s6.6 10.15 9.63 15.39 5.78 10.66 8.37 16.14 4.88 11.1 7 16.8c.53 1.42 1 2.87 1.48 4.3s1 2.86 1.41 4.32l1.33 4.35 1.16 4.39c.41 1.46.76 2.94 1.09 4.42s.69 2.94 1 4.43c.52 3 1.16 5.94 1.55 8.94a149.75 149.75 0 0 1 1.59 18 259.09 259.09 0 0 0-8.22-35 265.71 265.71 0 0 0-13-33.33c-2.48-5.43-5.22-10.74-8.05-16s-5.83-10.42-8.93-15.54-6.39-10.12-9.8-15.05-6.94-9.72-10.66-14.45z" fill="#6bb1a6"/><path d="M137.13 564.86h57.58a4.52 4.52 0 0 1-4.52 4.52h-48.54a4.52 4.52 0 0 1-4.52-4.52z" fill="#07092e"/><path class="cls-12" d="M286.46 436h104.32v131H211v-55.6a75.45 75.45 0 0 1 75.46-75.4z"/><path class="cls-13" d="M388.48 355.39h249.64a48.53 48.53 0 0 1 48.53 48.53v93.3H340v-93.3a48.53 48.53 0 0 1 48.48-48.53z"/><path class="cls-13" d="M302.8 485.65h327.89v81.42H256v-34.63a46.8 46.8 0 0 1 46.8-46.79z"/><path class="cls-12" d="M390.78 567.06s2.08-72.17 59.25-77.62c45.45-4.33 55.12-27.9 57.85-53.76s.68-50.37-19.74-57.17l-63.3 53.08L337.05 516l-18.23 49z"/><path d="M582.72 436H687v131H507.28v-55.6a75.45 75.45 0 0 1 75.44-75.4z" fill="#ee9896"/><path class="cls-15" d="M450.17 478.22s-75.49 12-95.84 94.8M397.85 468.88s-61.13 23.86-81.52 99.12"/><path class="cls-5" d="M325.57 561.51c-1.51.33 24.38 24 30.93 26.42 0 0 5.18-5.73 7.43-9.88.14-.25-8.61-7.57-8.61-7.57 3.44-5.71-4.77-8.63-7-5.38-1.13 1.63-7.21-.4-19.05-7.89-.88-.54-3.58 4.27-3.7 4.3zM289.07 556c-1.51.33 24.38 24 30.93 26.42 0 0 5.18-5.73 7.43-9.88.14-.25-8.61-7.57-8.61-7.57 3.44-5.71-4.77-8.63-7-5.38-1.13 1.63-7.21-.4-19.05-7.89-.88-.53-3.58 4.3-3.7 4.3z"/><path d="M484.53 373.13l-50.78-.28a14.55 14.55 0 0 0-14.65 14.55v20.05a55.58 55.58 0 0 1-4.43 20.69c-5.37 12.52-15.07 21.17-29.67 26.46l1 2.88 91.77 21.64a129.13 129.13 0 0 0 12.49-24.69c6.72-17.72 8.41-48.25 8.74-66.49a14.56 14.56 0 0 0-14.47-14.81z" fill="#b3cadd"/><path class="cls-17" d="M398.51 445.47c-5.61 7.07-3.4 5.46-13.53 9.13l1 2.88 91.77 21.64a129.13 129.13 0 0 0 12.49-24.69c6.58-17.35 8.34-47 8.71-65.33-13.7 3.28-4.22 73.55-100.44 56.37z"/><path d="M385 454.6a13.57 13.57 0 0 0 4.61 23.56l36.9 11.1a54.11 54.11 0 0 0 43.49-5.44l7.84-4.7z" fill="#29306a"/><path class="cls-19" d="M487.11 393.27s12.53 65-68.75 81"/><path class="cls-20" d="M424.16 479.85s1.63-11.62-10.22-11.15l-11.84.46 10 11.62z"/><path class="cls-19" d="M431.66 383.53s-.83 62-49.59 74.51"/><path class="cls-21" d="M457.72 381.36a5.89 5.89 0 0 1-5.88-5.89v-14.12a5.89 5.89 0 1 1 11.77 0v14.12a5.89 5.89 0 0 1-5.89 5.89z"/><ellipse class="cls-21" cx="416.54" cy="346.7" rx="7.18" ry="9.28" transform="rotate(-19.31 416.55 346.72)"/><ellipse class="cls-21" cx="499.96" cy="346.7" rx="9.28" ry="7.18" transform="rotate(-70.69 499.95 346.7)"/><path class="cls-20" d="M428.31 367.22a11.35 11.35 0 0 1-11.51-11.53v-46.83a11.47 11.47 0 0 1 11.51-11.67h59.87a11.54 11.54 0 0 1 11.6 11.67v46.83a11.42 11.42 0 0 1-11.6 11.53z"/><path class="cls-21" d="M431.72 345.79c1.31-3.22.71-6.85 1-10.31.47-6.24-1.52-27.78-.68-33.54.56-3.9-2.88-4.69-4-4.85a11.67 11.67 0 0 0-11.2 11.77v46.83a11.35 11.35 0 0 0 11.51 11.53h9.35c1.18-.59-8.86-14.34-5.98-21.43z"/><path class="cls-22" d="M494.05 349a19.55 19.55 0 0 0-3.52.18 13.81 13.81 0 0 0-3.74.8c-1 .41-.78 2.59-.37 3 .72.65 1.95.4 2.83.33a19 19 0 0 0 3.8-.8c.73-.21 1.81-.37 2-1.28a2.16 2.16 0 0 0-1-2.23zM422.13 351.19c.16.91 1.23 1.07 2 1.28a19 19 0 0 0 3.81.8c.87.07 2.1.32 2.82-.33.41-.38.62-2.56-.37-3a13.73 13.73 0 0 0-3.74-.8 19.55 19.55 0 0 0-3.52-.18 2.16 2.16 0 0 0-1 2.23z"/><path class="cls-23" d="M472.05 338.81a1.47 1.47 0 0 1-1.47-1.47c0-3.35 4.81-11.54 13.73-11.54 13.17 0 13.55 9.64 13.55 10.74a1.47 1.47 0 0 1-2.94 0c0-1.3-.52-7.79-10.61-7.79-7.44 0-10.79 6.83-10.79 8.59a1.47 1.47 0 0 1-1.47 1.47zM444.53 338.81a1.47 1.47 0 0 1-1.47-1.47c0-1.76-3.34-8.59-10.78-8.59-10.1 0-10.61 6.49-10.61 7.79a1.47 1.47 0 1 1-2.94 0c0-1.1.38-10.74 13.55-10.74 8.91 0 13.72 8.19 13.72 11.54a1.47 1.47 0 0 1-1.47 1.47z"/><path class="cls-24" d="M484.75 344.63c7.47 0 11.64-4.92 11.64-7.53 0-2.92-1.86-9.27-12.08-9.27-8.28 0-12.26 7.62-12.26 10.07s5.05 6.73 12.7 6.73zM431.84 344.63c-7.48 0-11.64-4.92-11.64-7.53 0-2.92 1.85-9.27 12.08-9.27 8.28 0 12.25 7.62 12.25 10.07s-5.05 6.73-12.69 6.73z"/><path class="cls-22" d="M480.66 332.05c-5.85.82-4.43 5.45-4.86 8.88-.3 2.43 2.73 4.55 5.31 4.43 4.2-.19 4.69-2.54 5-4.76.35-1.92.67-9.4-5.45-8.55z"/><path class="cls-25" d="M480.79 334.39c-3.78.53-2.87 3.53-3.14 5.75-.2 1.57 1.77 2.94 3.43 2.86 2.72-.12 3-1.64 3.27-3.08.19-1.24.4-6.08-3.56-5.53z"/><path class="cls-24" d="M483 333.36a2.27 2.27 0 0 0-1.34.33A1.54 1.54 0 0 0 481 335a1.49 1.49 0 0 0 .59 1.28 1.78 1.78 0 0 0 2.84-1.28 1.6 1.6 0 0 0-1.43-1.64z"/><path class="cls-22" d="M428.12 333.08c-5.85.81-4.43 5.45-4.86 8.88-.3 2.43 2.74 4.54 5.31 4.43 4.21-.19 4.69-2.55 5.05-4.77.3-1.91.62-9.39-5.5-8.54z"/><path class="cls-25" d="M428.25 335.42c-3.78.52-2.86 3.52-3.14 5.74-.19 1.57 1.77 2.94 3.43 2.87 2.73-.13 3-1.65 3.27-3.09.19-1.23.4-6.07-3.56-5.52z"/><path class="cls-24" d="M430.46 334.39a2.2 2.2 0 0 0-1.34.33 1.5 1.5 0 0 0-.62 1.33 1.46 1.46 0 0 0 .58 1.28 1.78 1.78 0 0 0 2.84-1.28 1.59 1.59 0 0 0-1.46-1.66z"/><path class="cls-21" d="M463.6 346.51c-1.27-3.13-1.38-13.46-5.31-13.46s-4 10.33-5.31 13.46c-.88.89-2.83 2.6-2 4.25.39.78 1 1.2 2.72 1.16.33.81 1.65 2.05 4.61 2.05s4.29-1.24 4.62-2.05c1.75 0 2.33-.38 2.72-1.16.79-1.65-1.32-3.52-2.05-4.25z"/><path class="cls-23" d="M452.29 358.79a1.18 1.18 0 0 1 0-2.36c1 0 6.77-.72 7.44-.86a48.84 48.84 0 0 0 7.82-2l1.09-.38a1.18 1.18 0 0 1 .73 2.24l-1 .36a52.64 52.64 0 0 1-8.14 2.13c-.86.13-6.75.87-7.94.87z"/><path class="cls-26" d="M498.13 320.28a20.8 20.8 0 0 0-7-4.26c-3-1-14.6-1.46-17.84-.57-.75.2-1.32 1.47-.42 3.34.47 1 1.73.24 3.7 0 8.42-1.17 16.71.48 20.94 2.83.16.05.87-1.1.62-1.34zM419 321.58c4.22-2.35 12.52-4 20.93-2.83 2 .28 3.24 1 3.7 0 .9-1.87.34-3.14-.41-3.34-3.24-.89-14.88-.45-17.85.57a20.8 20.8 0 0 0-7 4.26c-.25.28.45 1.43.63 1.34z"/><path class="cls-27" d="M512.4 306.85a3 3 0 0 0-1.19-4.62c.54-.14 1.71-4.05-1.39-4.24a2.41 2.41 0 0 0-1.77-3.82c2.07-1.78 0-4.43-2.44-3.36.93-1.42-.66-3.24-2-2.42.07-.75-.7-1.63-1.72-1.93a50.39 50.39 0 0 0-19-12.37c.31-1.81-2.86-2.95-4.19-1.42.56-1.66-2.87-3.09-4-1.2a1.74 1.74 0 0 0-3.39-.56 74.62 74.62 0 0 0-13.11-1.14c-11.59 0-22.34 2.55-31.21 7.3a3.67 3.67 0 0 0-3 1.75c-1.44-1.42-4.33.28-3.59 2.47-.88-1.52-4.42-.11-3.23 2.42-2.06-1.29-3.72 1.33-2.69 2.9a2.43 2.43 0 0 0-2.07 2.39 41.89 41.89 0 0 0-9.13 26.73c0 10.28 3.22 17.51 8.76 25.55.36 4.34 7.78-7.11 9.26-14 .3-1.42 5.34-16.29 34-16.29 32.26 0 35.79 9.91 38.55 14.35 1.53 5.6 10.19 22.5 11.11 15.13 5.21-7.87 8.22-14.81 8.22-24.75a46.94 46.94 0 0 0-.31-5.36c.57-1.24.79-2.6-.47-3.51z"/><path class="cls-26" d="M424.06 278.81c-1.45-1.42-4.34.28-3.6 2.47-.88-1.51-4.42-.11-3.23 2.42-2.06-1.28-3.72 1.34-2.69 2.9a2.44 2.44 0 0 0-2.07 2.4 41.86 41.86 0 0 0-9.13 26.72c0 10.28 3.22 17.51 8.76 25.55.36 4.33 7.78-7.11 9.26-14 .19-.9 2.31-7.27 11.25-11.77 1.23-8.64-4-16.65-4.14-16.77-3.87-3.07-4-9.63.29-7.26-3.72-2.62-.91-7.18 2.36-5.08-4.77-4.61 1.21-6 1.18-6.1a20 20 0 0 0-1.74-4.9c-1.19.53-2.35 1.1-3.48 1.7a3.69 3.69 0 0 0-3.02 1.72z"/><path class="cls-27" d="M403.34 312.78c0 10.29 3.22 17.52 8.76 25.56.36 4.33.81 8.45 1.35 11.25a.32.32 0 0 0 .37.21 2.51 2.51 0 0 0 1.95-1.69 5 5 0 0 0 2.26 2.18.29.29 0 0 0 .44-.25c-.54-7.13 1.41-18.81 2.89-25.72.3-1.42 5.34-16.29 34-16.29 32.26 0 35.79 9.9 38.55 14.35 1.53 5.6 3.22 22.28 3.23 23.22 0 2.32 2.46 3 2.94-.24 3.15 7.41 4.95-7.81 4.95-7.81 7.47-10.19 14.14-38.41-10.48-50.38-23.85-11.6-61.94-11.71-61.5 1.12-3.68-5.18-6.84-.53-4.29 3.16-9.83-8.83-25.42 16.13-25.42 21.33z"/><path class="cls-26" d="M403.34 312.78c0 10.29 3.22 17.52 8.76 25.56.36 4.33.81 8.45 1.35 11.25a.32.32 0 0 0 .37.21 2.51 2.51 0 0 0 1.95-1.69 5 5 0 0 0 2.26 2.18.29.29 0 0 0 .44-.25c-.54-7.13 1.41-18.81 2.89-25.72.19-.91 2.31-7.28 11.25-11.78-3.88-2.68-8.43-5.25-3.36-6.08-6.89-6.14-.63-7.63-.78-7.75-3.87-3.07-4-9.63.29-7.26-4.68-5.28-9-4.4-14.54-.5-6.28 4.38-10.88 16.26-10.88 21.83z"/><path class="cls-17" d="M457.37 379.29l-4.27 5.25a20.09 20.09 0 0 0 8.55 0z"/><path class="cls-28" d="M468.82 375.93L462 385l-4.63-5.68s6.42-7.94 7-7.9c.25-.01 4.74 4.22 4.45 4.51zM445.92 375.93l6.82 9 4.63-5.68s-6.42-7.94-7-7.9c-.25.06-4.73 4.29-4.45 4.58z"/><path fill="#3eaad3" d="M389.7 479.39h54.16v5.94H389.7z"/><path d="M418.85 485.26H331.5l-24.29-65.08a3.82 3.82 0 0 1 3.58-5.15h77a6.92 6.92 0 0 1 6.5 4.51z" fill="#60bbe7"/><ellipse cx="360.67" cy="449.1" rx="6.12" ry="8.21" transform="rotate(-27.48 360.64 449.07)" fill="#eef8fe"/><circle cx="465.39" cy="202.6" r="34.8" fill="url(#Dégradé_sans_nom_20)"/><path d="M491.15 201.84a25.78 25.78 0 1 0-40.77 21 12.89 12.89 0 0 1 5.46 10.46h19.06a13 13 0 0 1 5.54-10.52 25.72 25.72 0 0 0 10.71-20.94z" opacity=".2" fill="#eef8fe"/><path d="M463.13 236.51s4.35-37-2.4-35.28 2.61 17.2 10 6.1-4.57-10.89-4.36-5.23.87 34.41.87 34.41" stroke="#e5d845" stroke-width="2" fill="none" stroke-miterlimit="10"/><path class="cls-35" d="M455.84 235.78h19.06M455.84 240.46h19.06M455.84 245.14h19.06"/><path d="M458 247.57h14.81a4.27 4.27 0 0 1-4.27 4.27h-6.26a4.27 4.27 0 0 1-4.27-4.27z" fill="#75a6cf"/></g></svg>