<svg xmlns="http://www.w3.org/2000/svg" viewBox="0 0 797.37 797.37"><defs><style>.cls-2{fill:#7c87ab}.cls-3{fill:#919ebd}.cls-5{fill:#f9d797}.cls-10,.cls-11,.cls-17,.cls-30,.cls-31,.cls-32,.cls-34,.cls-6,.cls-8{fill:none;stroke-linecap:round;stroke-miterlimit:10}.cls-6{stroke:#c2a974}.cls-17,.cls-6{stroke-width:3px}.cls-7{fill:#fff}.cls-8{stroke:#8e9192}.cls-10,.cls-30,.cls-32,.cls-8{stroke-width:5px}.cls-9{fill:#c1c2c2}.cls-10{stroke:#eb2c61}.cls-11{stroke:#6f7596;stroke-width:10px}.cls-13{fill:#fcfeff}.cls-14{fill:#edddd9}.cls-17{stroke:#6dbd5f}.cls-18{fill:#42243b}.cls-20{fill:#101c23}.cls-21{fill:#cb8770}.cls-22{fill:#192040}.cls-23{fill:#97b6ca}.cls-26{fill:#482b40}.cls-27{fill:#000006}.cls-29{fill:#55384d}.cls-30{stroke:#a2bee1}.cls-31{stroke:#d24167;stroke-width:14px}.cls-32{stroke:#e9ba9b}.cls-33{fill:#f3d8b5}.cls-34{stroke:#42243b;stroke-width:20px}.cls-36{fill:#e9ba9b}.cls-37{fill:#68353f}.cls-40{fill:#211e2a}</style></defs><path fill="#a2bee1" d="M-8.37-4.89h814v810h-814z" id="Calque_3" data-name="Calque 3"/><g id="Calque_1" data-name="Calque 1"><rect class="cls-2" x="331.31" y="258.83" width="351.84" height="192.08" rx="5.36" ry="5.36"/><path class="cls-3" d="M338.52 265.65h336.96v179.2H338.52z"/><path fill="#bdd3ec" d="M343.61 265.65h331.87v174.28H343.61z"/><path class="cls-5" d="M635.65 313.66h24.89v25.26h-24.89z"/><path class="cls-6" d="M640.98 319.57h14.21M640.98 325.08h8.09"/><path class="cls-5" d="M516.61 324.22h24.89v25.26h-24.89z"/><path class="cls-6" d="M521.94 330.13h14.21M521.94 335.63h8.09"/><path class="cls-5" d="M549.45 354.13h24.89v25.26h-24.89z"/><path class="cls-6" d="M554.78 360.04h14.21M554.78 365.54h8.09"/><path class="cls-7" d="M590.35 286.79h36.33v50.33h-36.33z"/><path class="cls-8" d="M598.68 299.13h19.34M598.68 307.6h19.34M598.68 316.08h9.39"/><path class="cls-9" d="M606.55 281.48h3.92v7.97h-3.92z"/><path class="cls-7" d="M548.72 296.17h36.33v50.33h-36.33z"/><path class="cls-10" d="M557.05 316.98h19.33M557.05 325.46h9.39"/><path class="cls-9" d="M564.92 290.86h3.92v7.97h-3.92z"/><path class="cls-5" d="M581.12 330.67h24.89v25.26h-24.89z"/><path class="cls-6" d="M586.45 336.58h14.21M586.45 342.08h8.09"/><path class="cls-5" d="M484.62 315.6h24.89v25.26h-24.89z"/><path class="cls-6" d="M489.95 321.51h14.21M489.95 327.02h8.09"/><path class="cls-5" d="M365.57 326.16h24.89v25.26h-24.89z"/><path class="cls-6" d="M370.9 332.07h14.22M370.9 337.57h8.1"/><path class="cls-5" d="M398.41 356.07h24.89v25.26h-24.89z"/><path class="cls-6" d="M403.74 361.98h14.22M403.74 367.48h8.09"/><path class="cls-7" d="M604.93 367.73h36.33v50.33h-36.33z"/><path class="cls-8" d="M613.26 380.07h19.33M613.26 388.54h19.33M613.26 397.02h9.39"/><path class="cls-9" d="M621.13 362.42h3.92v7.97h-3.92z"/><path class="cls-7" d="M397.68 298.11h36.33v50.33h-36.33z"/><path class="cls-10" d="M406.02 318.92h19.33M406.02 327.4h9.38"/><path class="cls-9" d="M413.89 292.8h3.92v7.97h-3.92z"/><path class="cls-5" d="M430.08 332.61h24.89v25.26h-24.89z"/><path class="cls-6" d="M435.41 338.52h14.22M435.41 344.02h8.09"/><ellipse class="cls-3" cx="373.59" cy="601.72" rx="263.27" ry="24.26"/><ellipse class="cls-2" cx="371.88" cy="610.26" rx="98" ry="12"/><ellipse class="cls-2" cx="201.3" cy="608.21" rx="72.1" ry="12"/><path class="cls-11" d="M247.59 488.81v104.1M561.99 488.81v104.1M599.86 488.81v104.1"/><path stroke="#efbc87" stroke-width="15" fill="none" stroke-linecap="round" stroke-miterlimit="10" d="M192.66 486.02h418.97"/><path class="cls-13" d="M457 468h77.72a5.94 5.94 0 0 0 5.76-4.48L553.6 412a6 6 0 0 0-5.77-7.43h-77.72a6 6 0 0 0-5.77 4.48l-13.16 51.51A6 6 0 0 0 457 468z"/><path class="cls-14" d="M453.7 468h78.44a6 6 0 0 0 5.78-4.48l13.34-52.21a5.4 5.4 0 0 0-5.23-6.73h-78.44a6 6 0 0 0-5.77 4.49l-13.34 52.2a5.39 5.39 0 0 0 5.22 6.73z"/><path d="M455.07 465h75.29a4.9 4.9 0 0 0 4.75-3.67l12.95-49.4a3.5 3.5 0 0 0-3.39-4.4h-75.29a4.91 4.91 0 0 0-4.76 3.67l-12.94 49.4a3.51 3.51 0 0 0 3.39 4.4z" fill="#303944"/><path class="cls-13" d="M423.32 469.28H528.1a8 8 0 0 1 8 8H415.31a8 8 0 0 1 8.01-8z" transform="rotate(-180 475.7 473.29)"/><path d="M423.32 469.28h59a8 8 0 0 1 8 8h-75a8 8 0 0 1 8-8z" transform="rotate(180 452.81 473.29)" fill="#dfdfde"/><path class="cls-17" d="M472.18 415.39h34.7M470.36 422.26h54.71M468.55 429.14h63.47M466.73 436.02h59.52M464.91 442.9h52.85M463.69 449.77h46.06M461.99 456.65h62.25"/><path class="cls-18" d="M424.1 604.23h-.1a9.5 9.5 0 0 1-9.41-9.59c.37-36-8.36-50-15.74-55.49a20.58 20.58 0 0 0-16.85-3.34 9.5 9.5 0 1 1-5.77-18.1 39.67 39.67 0 0 1 33.92 6.14c15.92 11.76 23.81 35.64 23.45 71a9.5 9.5 0 0 1-9.5 9.38z"/><path d="M395.44 604.23h-.1a9.48 9.48 0 0 1-9.4-9.59c.36-35.72-8.25-49.81-15.53-55.33a20.6 20.6 0 0 0-17.19-3.45h.11l-5.77-18.1a39.69 39.69 0 0 1 33.93 6.14c15.91 11.76 23.8 35.64 23.45 71a9.51 9.51 0 0 1-9.5 9.33z" fill="#32192f"/><path class="cls-20" d="M335 598.5a10 10 0 0 1-10-10v-40a10 10 0 0 1 20 0v40a10 10 0 0 1-10 10z"/><path class="cls-21" d="M461 483c1.88-1.21-1.67-12.42-4.22-13.3-1.36-.47-11.8-4.42-12.51-1.27-.57 2.53-2.23 12.69-.93 15.1 1.15 2.21 15.6.82 17.66-.53z"/><path class="cls-22" d="M328.53 554.48a10 10 0 0 1-10-10v-19.63a10 10 0 0 1 20 0v19.63a10 10 0 0 1-10 10zM375.27 555a10 10 0 0 1-10-10v-20.15a10 10 0 0 1 20 0V545a10 10 0 0 1-10 10z"/><path class="cls-18" d="M396.47 504c0-7.83-5.91-13.66-12.91-13.66h-66.48c-7 0-12 5.83-12.05 13.66v14.3c0 7.83 5.91 13.66 12.91 13.66h66.48c7 0 12-5.83 12.05-13.66V504z"/><path class="cls-14" d="M304.37 512.62c0-34 6.59-33.58 6.59-78.93 0-7.83 5.14-13.66 12.29-13.66H378a13.33 13.33 0 0 1 13.18 13.66c0 59.54 5.62 30.81 6.58 78.93.13 8.08-93.24 7.98-93.39 0z"/><path class="cls-23" d="M320.68 500c-1.29-9.36-1.24-18.82-1-28.25s.68-14.24.1-23.67c-.51-8.36-3.09-20.65-8-19.56a16.17 16.17 0 0 0-.84 5.21c0 45.35-6.59 44.95-6.59 78.93 0 2.26 7.82 3.87 18.93 4.83-.62-5.89-1.8-11.69-2.6-17.49z"/><path class="cls-21" d="M341.64 404.03h20v17.26h-20z"/><ellipse class="cls-21" cx="301.35" cy="385.96" rx="8.8" ry="11.38" transform="rotate(-19.31 301.37 385.98)"/><path class="cls-21" d="M315.79 411.42A14.43 14.43 0 0 1 301.35 397v-57.44a14.44 14.44 0 0 1 14.44-14.44h73.41a14.45 14.45 0 0 1 14.44 14.44V397a14.44 14.44 0 0 1-14.44 14.44z"/><path d="M298.21 330.07v60.1a15.3 15.3 0 0 0 15.05 15.31c12.45.2 28.38.45 30.24.45h13a5.71 5.71 0 0 0 5.81-5.6 5.64 5.64 0 0 1 4.19-5.37 22.46 22.46 0 0 0 15.73-16.39 31.8 31.8 0 0 1 12.87-18.33 22.32 22.32 0 0 0 10.42-18.63v-11.53a16 16 0 0 0-16-16.05h-75.27a16 16 0 0 0-16.04 16.04z" fill="#331836"/><ellipse cx="392.44" cy="384.89" rx="11.38" ry="8.8" transform="rotate(-70.69 392.43 384.89)" fill="#ac6d5d"/><rect class="cls-26" x="258.03" y="521.98" width="155.08" height="37" rx="18.5" ry="18.5"/><rect class="cls-20" x="295.51" y="587.71" width="80" height="14" rx="7" ry="7"/><rect class="cls-27" x="314.62" y="587.71" width="41.79" height="14" rx="7" ry="7"/><circle class="cls-27" cx="304.28" cy="602.9" r="5.49"/><circle class="cls-27" cx="325.1" cy="602.9" r="5.49"/><circle class="cls-27" cx="345.92" cy="602.9" r="5.49"/><circle class="cls-27" cx="366.75" cy="602.9" r="5.49"/><path class="cls-20" d="M454.48 602.11c-13.86-2-19.81-4.4-19.61-6.37.39-3.94-7.75-7-8.84-.47 0 0-11.4-.12-11.46.16-1 4.62-.77 12.34-.77 12.34 6.58 2.39 41.61 1.23 40.68 0-.08-.11 1-5.51 0-5.66z"/><path class="cls-20" d="M426.34 602.11c-13.86-2-19.8-4.4-19.61-6.37.39-3.94-7.74-7-8.84-.47 0 0-11.4-.12-11.46.16-1 4.62-.77 12.34-.77 12.34 6.58 2.39 41.61 1.23 40.68 0-.07-.11 1-5.51 0-5.66z"/><path d="M380.65 438.52s-7.26 63.05 60.57 39.18" stroke="#edddd9" stroke-width="17" fill="none" stroke-linecap="round" stroke-miterlimit="10"/><rect class="cls-29" x="256.11" y="392.06" width="123" height="152" rx="17.51" ry="17.51"/><path class="cls-26" d="M361.61 392.06h-22a17.51 17.51 0 0 1 17.5 17.51v117a17.51 17.51 0 0 1-17.5 17.51h22a17.51 17.51 0 0 0 17.5-17.51v-117a17.51 17.51 0 0 0-17.5-17.51z"/><rect class="cls-29" x="366.64" y="486.53" width="56.58" height="19" rx="9.3" ry="9.3"/><rect class="cls-7" x="342.35" y="178.72" width="75.25" height="57.25" rx="20.04" ry="20.04" transform="rotate(-180 379.98 207.34)"/><path class="cls-7" d="M359.94 247.42l18.4-16.76h-18.4v16.76z"/><path class="cls-30" d="M398.65 196.78h-37.82M398.65 207.4h-37.82M398.65 218.02h-37.82"/><rect class="cls-7" x="246.95" y="239.93" width="75.25" height="57.25" rx="20.04" ry="20.04" transform="rotate(-180 284.57 268.56)"/><path class="cls-7" d="M264.53 308.63l18.4-16.76h-18.4v16.76z"/><path class="cls-30" d="M303.24 257.99h-37.82M303.24 268.61h-37.82M303.24 279.23h-37.82"/><path class="cls-31" d="M115.56 446c-5.26 9.9-3.32 22.32 17.53 36.3M148.42 421.67s-24.82 9.25-32.86 24.33"/><path class="cls-32" d="M131.52 492.7c-.11 4.24-8.78 10.49-11.35 9.93M135.8 499.45c-.1.55-4.22 7.92-10.92 8.54M140.85 502.68c-1.78 4.62-6.29 9.07-11.13 8.24"/><path class="cls-33" d="M128.34 493.25c-.22 2.23 11.21 12.15 13.48 10.71 1.22-.78 10.36-12.21 8.34-14.72-1.62-2-8.54-9.65-11.23-10.14-2.44-.43-10.35 11.73-10.59 14.15z"/><path class="cls-34" d="M161.52 522.84v68.87M208.26 520.74v70.97"/><path class="cls-32" d="M282.54 480c3.38-2.54 13.67.34 14.83 2.7M285.15 472.44c.49-.26 8.82-1.63 13.48 3.23M284.53 466.48c4.72-1.49 11-.73 13.38 3.57"/><path class="cls-33" d="M285 482.14c1.87-1.22 2.52-16.34 0-17.22-1.36-.47-16-.5-16.71 2.65-.57 2.52-2.23 12.69-.93 15.1 1.1 2.18 15.54.78 17.64-.53z"/><path stroke="#f9c1b2" stroke-width="20" fill="none" stroke-linecap="round" stroke-miterlimit="10" d="M184.63 392.01v17.26"/><ellipse class="cls-36" cx="134.34" cy="373.93" rx="8.8" ry="11.38" transform="rotate(-19.31 134.34 373.95)"/><path class="cls-33" d="M148.78 399.39A14.44 14.44 0 0 1 134.34 385v-57.46a14.44 14.44 0 0 1 14.44-14.44h73.41a14.44 14.44 0 0 1 14.44 14.44V385a14.44 14.44 0 0 1-14.44 14.44z"/><path class="cls-37" d="M131.2 338.62v39.52a15.31 15.31 0 0 0 15.05 15.31c12.45.2 28.38.45 30.24.45h13a5.72 5.72 0 0 0 5.82-5.59 5.63 5.63 0 0 1 4.18-5.38 22.46 22.46 0 0 0 15.73-16.38 31.79 31.79 0 0 1 12.87-18.34 22.32 22.32 0 0 0 10.42-18.62v-11.53a16 16 0 0 0-16-16.06h-54.69a36.61 36.61 0 0 0-36.62 36.62z"/><ellipse class="cls-36" cx="225.43" cy="372.86" rx="11.38" ry="8.8" transform="rotate(-70.69 225.43 372.86)"/><path class="cls-23" d="M195.7 404.83s-9.35 5.71-22.6.26l-2.59 2.59s3.37 12.47 14 12.47c0 0 9.87-.26 12.47-11.69z"/><path class="cls-18" d="M159.29 509.66h53.9a12 12 0 0 1 12 12v6.79h-82.11v-2.63a16.22 16.22 0 0 1 16.22-16.22z" transform="rotate(-180 184.16 519.09)"/><path d="M225.24 509.66s0-13.59-9.58-38.91c-6.26-16.55 7.47-31.79 7.47-48.8 0-7.83-5.15-13.66-12.3-13.66h-54.71A13.33 13.33 0 0 0 142.94 422c0 14.09 12.18 38 9.09 49.42-8.31 30.77-8.95 38.91-8.95 38.91z" fill="#d24166"/><path d="M205.16 467.35c-3.6-7.58-.79-6.82 5.76-12.75a25 25 0 0 0 6.3-8.58c-2.74 8.17-4.75 16.28-1.56 24.73 9.58 25.32 9.58 38.91 9.58 38.91l-16.3.13c2.23-3.73 7.69-18.27-3.78-42.44z" fill="#a42b50"/><path class="cls-31" d="M215.16 419.17c-5 55.9 18.68 57.47 49.26 57.17"/><path class="cls-37" d="M130.8 359.64s1.09 25.8-6.18 44c-5.62 14 1.82 36 33.44 37.08s58.53 1.09 52.77-32.41c-3.37-19.63 5.76-47.56 5.76-47.56z"/><path class="cls-37" d="M225.57 303s24.49 3.34 24.87 33.78c0 0-16.7 39-46.46 28.54z"/><path class="cls-40" d="M148.75 570.17l.42 42.4 10.45.77s4-4.61 5.76-1.15c0 0 16.23 3.18 26.67-1.42 0 0-2.52-4.22-4-5.37s-16.59-.89-17-5.87 1.08-29.92 1.08-29.92zM195.72 570.17l.43 42.4 10.44.77s4-4.61 5.77-1.15c0 0 16.22 3.18 26.67-1.42 0 0-2.52-4.22-4-5.37s-16.59-.89-16.95-5.87 1.08-29.92 1.08-29.92z"/></g></svg>