<svg id="Calque_1" xmlns="http://www.w3.org/2000/svg" viewBox="0 0 258.2 82.5"><style>.st0{fill:#010101}</style><path class="st0" d="M95 15.3c-2.5 0-4.5 2-4.5 4.5v23.9h-6.4L77 34.2c-1.5-2.1-2.9-3.6-5.5-3.6-3.8 0-5.6 3.5-3.2 6.7l8.1 10.3-8.5 11.9c-2.7 3.7-.1 6.9 3.1 6.9 2.8 0 4.1-1.4 6-4.1l7.3-10.5h6.2v10.1c0 2.5 2 4.5 4.5 4.5s4.5-2 4.5-4.5V19.8c0-2.5-2-4.5-4.5-4.5zM134.9 60.6a3.3 3.3 0 0 0-3.7-3c-1.7 0-3.4 1.1-5.3 1.1-2 0-3.2-1-3.2-3.6V38.8h6.5a4.03 4.03 0 0 0 0-8h-6.6V26c0-2.5-2-4.5-4.5-4.5s-4.5 2-4.5 4.5v4.8h-4.3a4.04 4.04 0 0 0 1 8h3.2V54c0 8.6 4.6 13 11.9 13 5.8 0 9.5-2.7 9.5-6.1v-.3zM211.4 29.9c-3.8-.2-7.5 1.5-9.9 4.5-.2-2.3-2.2-3.9-4.5-3.8h-.4c-2.3.1-4.1 2.1-4 4.5v26.7c0 2.5 2 4.5 4.5 4.5s4.5-2 4.5-4.5V46.1c0-4.8 2.8-7.8 7.1-7.8s7.1 3 7.1 7.8V62.2c.1 2.4 2.2 4.2 4.6 4.1h.4c2.4-.1 4.2-2.1 4.1-4.5v-17c0-9.2-5.3-14.9-13.5-14.9zM61 45.6l-4.2-4v-7c-.1-2.5-2.3-4.4-4.8-4.3-2.1.1-3.9 1.6-4.2 3.7-2.7-3.1-6.7-4.8-10.8-4.6-9.8 0-16.9 8-16.9 18.5 0 11 7.6 18.6 16.9 18.6 4.1.1 8.1-1.6 10.8-4.8.4 2.5 2.7 4.2 5.1 3.8 2.1-.3 3.7-2 3.9-4.2v-7l3.9-3.4c3-2.9.3-5.3.3-5.3zM38.5 58.1c-5.5 0-9.4-4.6-9.4-10.2 0-5.7 4-10.1 9.4-10.1s9.3 4.5 9.3 10.1-3.9 10.2-9.3 10.2zM234.6 46.1l-4.4-4.3c-.3-.1-.3.2-.3.3v13.4s0 .6.4.3l4-3.5c3.5-3.4.3-6.2.3-6.2zM182 45.6l-3.1-3v-7.4c.1-2.4-1.7-4.4-4.1-4.5h-.4c-2.3-.1-4.3 1.6-4.6 3.9-2.7-3.1-6.6-4.8-10.7-4.6-9.8 0-16.9 7.9-16.9 18.5 0 11 7.6 18.6 16.9 18.6 4.1.1 8.1-1.7 10.7-4.9.4 2.5 2.7 4.2 5.1 3.8 2.1-.3 3.7-2 3.9-4.2v-8.5l2.8-2.4c3.1-2.9.4-5.3.4-5.3zm-21.4 13.1c-5.4 0-9.4-4.6-9.4-10.2 0-5.7 4-10.2 9.4-10.2s9.3 4.5 9.3 10.2-3.9 10.2-9.3 10.2z"/></svg>